# Hierarchical Translation and Rotation (.htr) file
# Generated by EVaRT
[Header]
FileType htr
DataType HTRS
FileVersion 1
NumSegments 23
NumFrames 5
DataFrameRate 120
EulerRotationOrder ZYX
CalibrationUnits mm
RotationUnits Degrees
GlobalAxisofGravity Y
BoneLengthAxis Y
ScaleFactor 1
[SegmentNames&Hierarchy]
#CHILD            PARENT
DaveRoot          GLOBAL
Spine1            DaveRoot
Spine2            Spine1
Spine3            Spine2
Spine4            Spine3
Neck              Spine4
Head              Neck
LClavicle         Spine4
LUpperArm         LClavicle
LLowerArm         LUpperArm
LHand             LLowerArm
RClavicle         Spine4
RUpperArm         RClavicle
RLowerArm         RUpperArm
RHand             RLowerArm
RUpperLeg         DaveRoot
RLowerLeg         RUpperLeg
RFoot             RLowerLeg
RToes             RFoot
LUpperLeg         DaveRoot
LLowerLeg         LUpperLeg
LFoot             LLowerLeg
LToes             LFoot
[BasePosition]
#SegmentName      Tx   Ty   Tz   Rx   Ry   Rz   BoneLength
DaveRoot          1078.678277	988.889323	-667.355416	21.100172	-35.850280	-13.563871	100.000000
Spine1            0.000000	100.000000	0.000000	-14.881963	2.292165	3.740750	100.000000
Spine2            0.000000	100.000000	0.000000	6.530342	0.668586	4.295175	100.000000
Spine3            0.000000	100.000000	0.000000	12.838786	0.191691	4.342582	100.000000
Spine4            0.000000	100.000000	0.000000	14.062130	1.171471	5.872723	100.000000
Neck              0.000000	100.000000	0.000000	7.737895	11.498691	-3.920750	80.000000
Head              0.000000	80.000000	0.000000	-47.820279	-9.378091	-2.499782	200.000000
LClavicle         0.000000	100.000000	0.000000	7.006000	0.163524	-123.648937	200.000000
LUpperArm         0.000000	200.000000	0.000000	39.957204	52.516966	-16.160711	300.000000
LLowerArm         0.000000	300.000000	0.000000	-1.806693	2.175812	1.895763	200.000000
LHand             0.000000	200.000000	0.000000	16.195035	-1.768569	8.793625	120.000000
RClavicle         0.000000	100.000000	0.000000	3.329328	-3.962094	109.315139	200.000000
RUpperArm         0.000000	200.000000	0.000000	31.467517	-27.516660	21.198784	300.000000
RLowerArm         0.000000	300.000000	0.000000	20.023297	-3.682026	-7.348670	200.000000
RHand             0.000000	200.000000	0.000000	6.266882	13.427731	10.826414	120.000000
RUpperLeg         -115.911102	-10.000000	31.058285	22.207319	27.607647	-154.283666	530.000000
RLowerLeg         0.000000	530.000000	0.000000	-15.604109	0.479387	-2.520024	460.000000
RFoot             0.000000	460.000000	0.000000	98.099007	-9.797309	28.788465	130.000000
RToes             0.000000	130.000000	0.000000	-15.148141	0.005479	-0.002881	100.000000
LUpperLeg         115.911102	-10.000000	31.058285	41.660003	-3.682702	-163.432677	530.000000
LLowerLeg         0.000000	530.000000	0.000000	-22.778950	-3.275937	3.046484	460.000000
LFoot             0.000000	460.000000	0.000000	77.647326	-23.190969	-3.622247	130.000000
LToes             0.000000	130.000000	0.000000	14.512714	-0.000000	-0.000086	100.000000
#Beginning of Data.
[DaveRoot]
#Fr	Tx	Ty	Tz	Rx	Ry	Rz	SF
182	-43.175613	-3.663621	43.720693	-1.037357	0.792431	0.702045	1.000000	
183	-44.124412	-3.357704	45.538863	-0.844935	0.913312	0.719857	1.000000	
184	-45.093322	-2.978387	47.499609	-0.793609	1.063488	0.860736	1.000000	
185	-46.083355	-2.902423	49.349407	-0.994129	1.245649	1.024746	1.000000	
186	-46.908815	-2.464733	51.454673	-0.778263	1.393997	1.241165	1.000000	
[Spine1]
#Fr	Tx	Ty	Tz	Rx	Ry	Rz	SF
182	0.000000	0.000000	0.000000	-0.806463	0.751841	0.119174	1.000000	
183	0.000000	0.000000	0.000000	-1.026624	0.789917	0.113122	1.000000	
184	0.000000	0.000000	0.000000	-0.990359	0.770994	0.034367	1.000000	
185	0.000000	0.000000	0.000000	-0.561827	0.682986	-0.060416	1.000000	
186	0.000000	0.000000	0.000000	-0.723826	0.715859	-0.163045	1.000000	
[Spine2]
#Fr	Tx	Ty	Tz	Rx	Ry	Rz	SF
182	0.000000	0.000000	0.000000	-0.806463	0.751841	0.119174	1.000000	
183	0.000000	0.000000	0.000000	-1.026624	0.789917	0.113122	1.000000	
184	0.000000	0.000000	0.000000	-0.990359	0.770994	0.034367	1.000000	
185	0.000000	0.000000	0.000000	-0.561827	0.682986	-0.060416	1.000000	
186	0.000000	0.000000	0.000000	-0.723826	0.715859	-0.163045	1.000000	
[Spine3]
#Fr	Tx	Ty	Tz	Rx	Ry	Rz	SF
182	0.000000	0.000000	0.000000	-0.806463	0.751841	0.119174	1.000000	
183	0.000000	0.000000	0.000000	-1.026624	0.789917	0.113122	1.000000	
184	0.000000	0.000000	0.000000	-0.990359	0.770994	0.034367	1.000000	
185	0.000000	0.000000	0.000000	-0.561827	0.682986	-0.060416	1.000000	
186	0.000000	0.000000	0.000000	-0.723826	0.715859	-0.163045	1.000000	
[Spine4]
#Fr	Tx	Ty	Tz	Rx	Ry	Rz	SF
182	0.000000	0.000000	0.000000	-0.806463	0.751841	0.119174	1.000000	
183	0.000000	0.000000	0.000000	-1.026624	0.789917	0.113122	1.000000	
184	0.000000	0.000000	0.000000	-0.990359	0.770994	0.034367	1.000000	
185	0.000000	0.000000	0.000000	-0.561827	0.682986	-0.060416	1.000000	
186	0.000000	0.000000	0.000000	-0.723826	0.715859	-0.163045	1.000000	
[Neck]
#Fr	Tx	Ty	Tz	Rx	Ry	Rz	SF
182	0.000000	0.000000	0.000000	7.758296	9.227600	0.761059	1.000000	
183	0.000000	0.000000	0.000000	8.630487	9.090453	1.123318	1.000000	
184	0.000000	0.000000	0.000000	8.562708	9.088855	1.161291	1.000000	
185	0.000000	0.000000	0.000000	7.173130	9.187641	0.558996	1.000000	
186	0.000000	0.000000	0.000000	7.786461	9.108012	0.896015	1.000000	
[Head]
#Fr	Tx	Ty	Tz	Rx	Ry	Rz	SF
182	0.000000	0.000000	0.000000	7.758296	9.227600	0.761059	1.000000	
183	0.000000	0.000000	0.000000	8.630487	9.090453	1.123318	1.000000	
184	0.000000	0.000000	0.000000	8.562708	9.088855	1.161291	1.000000	
185	0.000000	0.000000	0.000000	7.173130	9.187641	0.558996	1.000000	
186	0.000000	0.000000	0.000000	7.786461	9.108012	0.896015	1.000000	
[LClavicle]
#Fr	Tx	Ty	Tz	Rx	Ry	Rz	SF
182	0.000000	0.000000	0.000000	1.263936	0.452195	-0.354833	1.000000	
183	0.000000	0.000000	0.000000	3.321668	1.178006	-0.177600	1.000000	
184	0.000000	0.000000	0.000000	3.153675	1.124187	-0.272513	1.000000	
185	0.000000	0.000000	0.000000	-0.084861	-0.030044	-0.168421	1.000000	
186	0.000000	0.000000	0.000000	1.227762	0.434770	-0.169346	1.000000	
[LUpperArm]
#Fr	Tx	Ty	Tz	Rx	Ry	Rz	SF
182	0.000000	0.000000	0.000000	1.171159	-10.318235	0.500459	1.000000	
183	0.000000	0.000000	0.000000	-4.412424	-16.220882	-0.708254	1.000000	
184	0.000000	0.000000	0.000000	-3.221912	-14.579318	-0.544973	1.000000	
185	0.000000	0.000000	0.000000	3.202839	-8.355442	1.491327	1.000000	
186	0.000000	0.000000	0.000000	0.953336	-10.285474	0.850565	1.000000	
[LLowerArm]
#Fr	Tx	Ty	Tz	Rx	Ry	Rz	SF
182	0.000000	0.000000	0.000000	4.592350	0.000000	0.000000	1.000000	
183	0.000000	0.000000	0.000000	17.141688	0.000000	0.000000	1.000000	
184	0.000000	0.000000	0.000000	13.333759	0.000000	0.000000	1.000000	
185	0.000000	0.000000	0.000000	1.687662	0.000000	0.000000	1.000000	
186	0.000000	0.000000	0.000000	4.876763	0.000000	0.000000	1.000000	
[LHand]
#Fr	Tx	Ty	Tz	Rx	Ry	Rz	SF
182	0.000000	0.000000	0.000000	-1.541342	-0.000000	0.000000	1.000000	
183	0.000000	0.000000	0.000000	-11.349397	-0.000000	0.000000	1.000000	
184	0.000000	0.000000	0.000000	-8.214681	-0.000000	0.000000	1.000000	
185	0.000000	0.000000	0.000000	0.305511	-0.000000	0.000000	1.000000	
186	0.000000	0.000000	0.000000	-1.859942	-0.000000	0.000000	1.000000	
[RClavicle]
#Fr	Tx	Ty	Tz	Rx	Ry	Rz	SF
182	0.000000	0.000000	0.000000	-0.487503	0.001845	-1.299076	1.000000	
183	0.000000	0.000000	0.000000	0.337347	0.000573	-1.613093	1.000000	
184	0.000000	0.000000	0.000000	0.378880	-0.000397	-1.455838	1.000000	
185	0.000000	0.000000	0.000000	-0.875595	0.006856	-1.067250	1.000000	
186	0.000000	0.000000	0.000000	-0.289207	0.002526	-1.015395	1.000000	
[RUpperArm]
#Fr	Tx	Ty	Tz	Rx	Ry	Rz	SF
182	0.000000	0.000000	0.000000	-2.695103	-0.003719	6.418146	1.000000	
183	0.000000	0.000000	0.000000	-4.117249	1.548990	7.648456	1.000000	
184	0.000000	0.000000	0.000000	-4.053950	1.153861	7.555470	1.000000	
185	0.000000	0.000000	0.000000	-1.568471	-1.447727	5.739919	1.000000	
186	0.000000	0.000000	0.000000	-2.627517	-0.806978	6.505375	1.000000	
[RLowerArm]
#Fr	Tx	Ty	Tz	Rx	Ry	Rz	SF
182	0.000000	0.000000	0.000000	0.468056	0.000000	0.000000	1.000000	
183	0.000000	0.000000	0.000000	1.642414	0.000000	0.000000	1.000000	
184	0.000000	0.000000	0.000000	1.406718	0.000000	0.000000	1.000000	
185	0.000000	0.000000	0.000000	-0.257596	0.000000	0.000000	1.000000	
186	0.000000	0.000000	0.000000	0.238173	0.000000	0.000000	1.000000	
[RHand]
#Fr	Tx	Ty	Tz	Rx	Ry	Rz	SF
182	0.000000	0.000000	0.000000	2.748422	-18.698187	-14.831580	1.000000	
183	0.000000	0.000000	0.000000	1.513959	-19.116986	-14.582455	1.000000	
184	0.000000	0.000000	0.000000	1.751497	-18.873732	-14.579883	1.000000	
185	0.000000	0.000000	0.000000	2.938842	-17.585680	-14.667584	1.000000	
186	0.000000	0.000000	0.000000	2.515498	-17.958316	-14.572434	1.000000	
[RUpperLeg]
#Fr	Tx	Ty	Tz	Rx	Ry	Rz	SF
182	0.000000	0.000000	0.000000	-3.445691	0.674095	-2.900075	1.000000	
183	0.000000	0.000000	0.000000	-3.356325	0.739230	-2.910137	1.000000	
184	0.000000	0.000000	0.000000	-3.219985	0.590398	-3.073324	1.000000	
185	0.000000	0.000000	0.000000	-3.181417	0.293615	-3.360157	1.000000	
186	0.000000	0.000000	0.000000	-2.730340	-0.211183	-3.446263	1.000000	
[RLowerLeg]
#Fr	Tx	Ty	Tz	Rx	Ry	Rz	SF
182	0.000000	0.000000	0.000000	-0.075567	-0.000000	0.000000	1.000000	
183	0.000000	0.000000	0.000000	-0.030512	-0.000000	0.000000	1.000000	
184	0.000000	0.000000	0.000000	-0.213883	-0.000000	0.000000	1.000000	
185	0.000000	0.000000	0.000000	-0.599320	-0.000000	0.000000	1.000000	
186	0.000000	0.000000	0.000000	-1.108647	-0.000000	0.000000	1.000000	
[RFoot]
#Fr	Tx	Ty	Tz	Rx	Ry	Rz	SF
182	0.000000	0.000000	0.000000	5.982213	9.774569	1.694953	1.000000	
183	0.000000	0.000000	0.000000	5.927155	9.736998	1.683184	1.000000	
184	0.000000	0.000000	0.000000	6.051015	9.523065	1.552314	1.000000	
185	0.000000	0.000000	0.000000	6.388410	9.230771	1.316795	1.000000	
186	0.000000	0.000000	0.000000	6.723288	8.683180	1.002496	1.000000	
[RToes]
#Fr	Tx	Ty	Tz	Rx	Ry	Rz	SF
182	0.000000	0.000000	0.000000	-10.825540	0.000000	0.000000	1.000000	
183	0.000000	0.000000	0.000000	-10.684545	0.000000	0.000000	1.000000	
184	0.000000	0.000000	0.000000	-10.487635	0.000000	0.000000	1.000000	
185	0.000000	0.000000	0.000000	-10.298356	0.000000	0.000000	1.000000	
186	0.000000	0.000000	0.000000	-9.930079	0.000000	0.000000	1.000000	
[LUpperLeg]
#Fr	Tx	Ty	Tz	Rx	Ry	Rz	SF
182	0.000000	0.000000	0.000000	2.853882	2.492702	-1.923626	1.000000	
183	0.000000	0.000000	0.000000	3.177337	2.189912	-2.002776	1.000000	
184	0.000000	0.000000	0.000000	3.290362	1.848067	-2.234540	1.000000	
185	0.000000	0.000000	0.000000	3.173004	1.528508	-2.535185	1.000000	
186	0.000000	0.000000	0.000000	3.390065	1.083341	-2.805846	1.000000	
[LLowerLeg]
#Fr	Tx	Ty	Tz	Rx	Ry	Rz	SF
182	0.000000	0.000000	0.000000	-14.232921	0.000000	0.000000	1.000000	
183	0.000000	0.000000	0.000000	-14.577618	0.000000	0.000000	1.000000	
184	0.000000	0.000000	0.000000	-14.792793	0.000000	0.000000	1.000000	
185	0.000000	0.000000	0.000000	-15.009686	0.000000	0.000000	1.000000	
186	0.000000	0.000000	0.000000	-15.129602	0.000000	0.000000	1.000000	
[LFoot]
#Fr	Tx	Ty	Tz	Rx	Ry	Rz	SF
182	0.000000	0.000000	0.000000	2.130782	8.997544	6.048590	1.000000	
183	0.000000	0.000000	0.000000	2.163142	9.067097	6.200108	1.000000	
184	0.000000	0.000000	0.000000	2.188387	9.181500	6.374442	1.000000	
185	0.000000	0.000000	0.000000	2.240639	9.437247	6.535180	1.000000	
186	0.000000	0.000000	0.000000	2.292977	9.729826	6.709469	1.000000	
[LToes]
#Fr	Tx	Ty	Tz	Rx	Ry	Rz	SF
182	0.000000	0.000000	0.000000	9.945407	0.000000	0.000000	1.000000	
183	0.000000	0.000000	0.000000	9.964990	0.000000	0.000000	1.000000	
184	0.000000	0.000000	0.000000	9.975061	0.000000	0.000000	1.000000	
185	0.000000	0.000000	0.000000	10.084167	0.000000	0.000000	1.000000	
186	0.000000	0.000000	0.000000	10.203967	0.000000	0.000000	1.000000	
